<?xml version="1.0" encoding="UTF-8"?>
<!-- Generator: visioncortex VTracer 0.6.3 -->
<svg version="1.1" xmlns="http://www.w3.org/2000/svg" width="1280" height="546">
<path d="M0 0 C0.66 -0 1.32 -0.01 1.99 -0.01 C5.49 -0.03 8.99 -0.05 12.48 -0.06 C15.32 -0.07 18.16 -0.09 20.99 -0.12 C43.21 -0.36 66.97 -0.14 87.91 8.3 C90.29 9.34 90.29 9.34 93.03 9.68 C97.3 10.41 101.21 11.79 105.28 13.24 C106.6 13.71 106.6 13.71 107.95 14.18 C110.74 15.18 113.51 16.21 116.28 17.24 C117.06 17.52 117.84 17.81 118.64 18.1 C126.8 21.21 134.55 25.2 142.28 29.24 C143.36 29.8 143.36 29.8 144.46 30.37 C160.39 38.75 175.54 48.58 189.28 60.24 C190.3 61.07 191.31 61.9 192.36 62.76 C206.23 74.24 219.3 86.94 230.28 101.24 C231.14 102.3 232.01 103.36 232.87 104.42 C265.56 144.64 285.95 196.25 289.07 248.02 C289.21 250.41 289.21 250.41 290.28 253.24 C290.37 254.87 290.41 256.51 290.4 258.15 C290.41 259.17 290.41 260.19 290.41 261.24 C290.41 262.37 290.4 263.49 290.4 264.65 C290.4 265.84 290.4 267.03 290.4 268.26 C290.41 271.57 290.4 274.88 290.4 278.19 C290.39 281.76 290.39 285.33 290.4 288.89 C290.4 295.08 290.39 301.26 290.39 307.45 C290.38 316.39 290.38 325.33 290.37 334.27 C290.37 348.78 290.37 363.29 290.36 377.79 C290.35 391.89 290.34 405.98 290.34 420.07 C290.34 420.94 290.34 421.81 290.34 422.71 C290.33 427.06 290.33 431.42 290.33 435.78 C290.32 471.93 290.3 508.08 290.28 544.24 C278.48 544.33 266.67 544.4 254.87 544.45 C249.38 544.47 243.9 544.49 238.42 544.54 C233.12 544.58 227.82 544.61 222.53 544.62 C220.51 544.63 218.5 544.64 216.48 544.66 C200.16 544.83 188.69 543.28 176.28 531.74 C168.7 523.97 164.99 515.99 164.28 505.24 C163.62 504.91 162.96 504.58 162.28 504.24 C160.19 505.11 160.19 505.11 157.87 506.48 C156.97 506.99 156.07 507.49 155.15 508.01 C154.18 508.56 153.21 509.11 152.22 509.68 C110.95 532.61 66.43 544.46 19.16 544.49 C18.27 544.49 17.39 544.49 16.48 544.49 C-58.77 544.4 -126.4 513.55 -179.72 461.24 C-182.18 458.66 -184.45 455.98 -186.72 453.24 C-187.6 452.24 -188.49 451.24 -189.38 450.24 C-212.64 423.96 -232.67 391.26 -242.1 357.27 C-242.71 355.27 -243.47 353.45 -244.34 351.55 C-245.8 348.04 -246.19 344.98 -246.72 341.24 C-247.21 339.85 -247.73 338.48 -248.28 337.11 C-249.54 333.97 -249.81 331.64 -249.72 328.24 C-250.03 327.62 -250.34 327 -250.66 326.36 C-251.74 324.19 -252.17 322.46 -252.54 320.08 C-252.66 319.28 -252.78 318.49 -252.91 317.67 C-253.09 316.44 -253.09 316.44 -253.28 315.18 C-253.41 314.38 -253.53 313.58 -253.66 312.76 C-254.05 310.26 -254.39 307.75 -254.72 305.24 C-254.87 304.09 -254.87 304.09 -255.02 302.92 C-256.03 293.85 -255.9 284.72 -255.9 275.6 C-255.91 272.71 -255.92 269.82 -255.94 266.92 C-256.15 202.32 -229.7 137.48 -185.72 90.24 C-184.59 88.93 -183.46 87.62 -182.34 86.3 C-175.36 78.31 -167.82 71.08 -159.52 64.48 C-156.61 62.15 -153.8 59.73 -150.97 57.3 C-126.45 36.89 -96.63 22.66 -66.72 12.24 C-66.01 11.98 -65.3 11.73 -64.58 11.47 C-44.09 4.11 -21.71 0.13 0 0 Z M-50.05 140.82 C-57.47 150.44 -61.94 161.96 -60.72 174.24 C-56.57 195.69 -43.78 208.91 -29.39 224.35 C-26.72 227.23 -24.13 230.17 -21.57 233.14 C-18.67 236.43 -15.69 239.64 -12.71 242.85 C-9.6 246.23 -6.63 249.69 -3.72 253.24 C-7.68 249.86 -11.57 246.45 -15.22 242.74 C-18.2 239.71 -21.33 236.9 -24.55 234.12 C-26.97 232.02 -29.34 229.88 -31.72 227.74 C-32.57 226.97 -33.42 226.21 -34.29 225.42 C-35.76 224.1 -37.22 222.78 -38.68 221.46 C-52.66 208.95 -68.08 196.53 -87.8 196.99 C-99.59 197.99 -111.36 202.69 -119.72 211.24 C-126.16 220.06 -130.3 228.04 -130.16 239.05 C-130.15 239.84 -130.14 240.63 -130.14 241.44 C-129.96 247.97 -128.58 253.34 -125.72 259.24 C-122.57 265.72 -120.01 271.2 -122.45 278.4 C-123.12 280.03 -123.8 281.65 -124.5 283.27 C-130.53 297.94 -132.77 309.08 -126.72 324.24 C-123.12 331.29 -117.72 338.16 -110.24 341.27 C-108.68 341.77 -107.1 342.23 -105.5 342.63 C-103.72 343.24 -103.72 343.24 -102.72 345.24 C-87.51 348.28 -71.96 347.09 -58.72 338.68 C-48.6 331.48 -39.47 323.09 -30.37 314.68 C-25.35 310.06 -20.2 305.81 -14.72 301.76 C-11.6 299.39 -8.67 296.82 -5.72 294.24 C-6.5 295.01 -7.29 295.79 -8.1 296.58 C-13.2 301.63 -18.24 306.66 -22.89 312.12 C-24.77 314.3 -26.71 316.4 -28.66 318.51 C-34.27 324.56 -39.57 330.79 -44.72 337.24 C-45.35 337.99 -45.97 338.73 -46.62 339.5 C-54.44 349.01 -61.69 362.16 -61.06 374.89 C-59.5 385.59 -56.39 394.63 -49.72 403.24 C-48.93 404.26 -48.93 404.26 -48.13 405.29 C-42.52 411.67 -34.03 415.02 -25.72 416.24 C-12.74 416.96 -3.12 415.23 8.54 409.23 C14.82 406.96 19.86 408.5 25.72 411.11 C37.85 416.41 51.25 418.85 64.22 414.8 C73.43 410.84 82.26 402.21 86.27 392.95 C91.17 378.99 90.41 363.59 84.16 350.11 C76.08 335.4 63.71 322.43 51.81 310.73 C46.89 305.89 42.12 301 38.28 295.24 C39.33 296.31 39.33 296.31 40.41 297.4 C45.22 302.27 50.05 307.04 55.25 311.5 C57.63 313.54 59.96 315.64 62.28 317.74 C66.58 321.61 70.88 325.48 75.28 329.24 C76.04 329.9 76.8 330.56 77.58 331.24 C87.39 339.59 87.39 339.59 99.28 343.24 C99.61 343.9 99.94 344.56 100.28 345.24 C114.22 348.06 128.56 347.37 140.91 340.11 C149.69 334.18 155.27 327.45 158.28 317.24 C158.82 313.63 158.9 310.13 158.84 306.49 C158.84 305.53 158.83 304.58 158.82 303.59 C158.58 294.62 156.47 287.08 152.14 279.16 C150.41 275.31 150.7 271.34 151.28 267.24 C152.36 264.44 153.65 261.82 154.97 259.14 C159.63 248.84 159.66 238.28 159.28 227.24 C158.62 227.24 157.96 227.24 157.28 227.24 C157.22 226.06 157.22 226.06 157.16 224.86 C155.07 216.21 149.61 209.18 142.28 204.24 C130.55 197.8 117.99 194.92 104.75 198.36 C90.32 203.48 78.9 212.58 67.8 222.91 C65.66 224.88 63.5 226.79 61.28 228.68 C57.46 231.99 53.92 235.58 50.36 239.17 C45.31 244.27 40.05 248.98 34.28 253.24 C34.75 252.71 35.22 252.18 35.71 251.63 C36.33 250.92 36.95 250.22 37.59 249.49 C38.21 248.79 38.82 248.1 39.46 247.38 C41.6 244.87 43.57 242.28 45.43 239.55 C48.75 234.81 52.61 230.79 56.72 226.74 C72.46 211.22 89.14 193.76 89.41 170.49 C89.37 165.02 88.95 159.66 88.28 154.24 C87.62 154.24 86.96 154.24 86.28 154.24 C86.13 153.68 85.99 153.12 85.84 152.55 C83.38 144.2 78.78 136.98 71.28 132.24 C59.83 126.28 49.27 124.19 36.66 127.99 C31.94 129.56 27.38 131.37 22.89 133.5 C15.04 135.71 8.36 133.63 0.97 130.8 C-0.78 130.15 -2.52 129.51 -4.27 128.87 C-5.03 128.58 -5.79 128.29 -6.57 127.99 C-22.71 122.31 -38.91 128.48 -50.05 140.82 Z M89.28 162.24 C90.28 164.24 90.28 164.24 90.28 164.24 Z M89.28 176.24 C90.28 179.24 90.28 179.24 90.28 179.24 Z M159.28 231.24 C160.28 234.24 160.28 234.24 160.28 234.24 Z M-252.72 232.24 C-251.72 234.24 -251.72 234.24 -251.72 234.24 Z M-253.72 239.24 C-252.72 242.24 -252.72 242.24 -252.72 242.24 Z M159.28 243.24 C160.28 246.24 160.28 246.24 160.28 246.24 Z M-254.72 250.24 C-253.72 253.24 -253.72 253.24 -253.72 253.24 Z M-254.72 291.24 C-253.72 294.24 -253.72 294.24 -253.72 294.24 Z M159.28 299.24 C159.28 303.53 159.28 307.82 159.28 312.24 C159.61 312.24 159.94 312.24 160.28 312.24 C160.28 307.95 160.28 303.66 160.28 299.24 C159.95 299.24 159.62 299.24 159.28 299.24 Z M-253.72 302.24 C-252.72 305.24 -252.72 305.24 -252.72 305.24 Z M-252.72 310.24 C-251.72 312.24 -251.72 312.24 -251.72 312.24 Z M-250.72 322.24 C-249.72 324.24 -249.72 324.24 -249.72 324.24 Z M-89.72 347.24 C-89.72 347.57 -89.72 347.9 -89.72 348.24 C-87.74 348.24 -85.76 348.24 -83.72 348.24 C-83.72 347.91 -83.72 347.58 -83.72 347.24 C-85.7 347.24 -87.68 347.24 -89.72 347.24 Z M113.28 347.24 C113.28 347.57 113.28 347.9 113.28 348.24 C115.26 348.24 117.24 348.24 119.28 348.24 C119.28 347.91 119.28 347.58 119.28 347.24 C117.3 347.24 115.32 347.24 113.28 347.24 Z M89.28 366.24 C90.28 369.24 90.28 369.24 90.28 369.24 Z M89.28 380.24 C90.28 383.24 90.28 383.24 90.28 383.24 Z M47.28 417.24 C47.28 417.57 47.28 417.9 47.28 418.24 C48.93 418.24 50.58 418.24 52.28 418.24 C52.28 417.91 52.28 417.58 52.28 417.24 C50.63 417.24 48.98 417.24 47.28 417.24 Z " fill="#FBFDFD" transform="translate(989.71875,-0.23828125)"/>
<path d="M0 0 C3.09 0 6.19 -0.02 9.28 -0.05 C27.15 -0.1 44.51 1.84 61.93 5.88 C62.87 6.09 63.81 6.29 64.78 6.51 C77.79 9.43 77.79 9.43 81.43 11.32 C83.52 12.33 85.27 12.76 87.54 13.16 C93.25 14.36 98.45 16.54 103.81 18.82 C104.86 19.26 105.9 19.7 106.98 20.16 C130.37 30.18 151.48 42.61 171.49 58.32 C172.45 59.06 173.41 59.81 174.4 60.58 C186.7 70.37 199.18 81.43 208.99 93.75 C211.52 96.9 214.07 99.97 216.81 102.94 C259.62 151.52 276.35 218.4 275.96 281.68 C275.94 285.26 275.95 288.83 275.95 292.41 C275.95 298.56 275.94 304.71 275.92 310.86 C275.88 319.75 275.87 328.64 275.87 337.53 C275.86 351.97 275.83 366.4 275.8 380.84 C275.76 394.84 275.73 408.84 275.71 422.84 C275.71 423.7 275.71 424.57 275.71 425.46 C275.7 429.81 275.7 434.16 275.69 438.52 C275.65 474.45 275.58 510.38 275.49 546.32 C264.64 546.39 253.78 546.44 242.92 546.47 C237.88 546.49 232.83 546.51 227.79 546.54 C222.91 546.57 218.04 546.59 213.16 546.6 C211.31 546.61 209.46 546.62 207.61 546.63 C190 546.78 175.29 545.38 161.9 532.89 C155.66 526.2 150.61 518.24 149.87 509 C149.76 507.68 149.76 507.68 149.64 506.33 C149.59 505.66 149.54 505 149.49 504.32 C148.41 504.97 148.41 504.97 147.31 505.64 C129.62 516.09 110.98 524.81 91.49 531.32 C90.83 531.54 90.17 531.77 89.49 532 C53.01 544.49 13.69 548.65 -24.51 544.32 C-25.39 544.22 -26.28 544.12 -27.19 544.02 C-42.28 542.34 -56.85 539.23 -71.51 535.32 C-72.25 535.12 -72.99 534.92 -73.76 534.72 C-114.16 523.66 -151.06 501.84 -181.51 473.32 C-182.9 472.1 -184.29 470.89 -185.69 469.69 C-192.53 463.71 -198.5 457.29 -204.17 450.2 C-205.68 448.33 -207.23 446.49 -208.81 444.68 C-220.98 430.7 -230.9 414.7 -239.51 398.32 C-239.86 397.65 -240.21 396.98 -240.58 396.29 C-245.18 387.5 -249.08 378.65 -252.51 369.32 C-253.21 367.56 -253.92 365.81 -254.63 364.07 C-257.4 357.15 -259.65 350.43 -260.88 343.07 C-261.43 340.66 -262.13 338.47 -262.94 336.15 C-282.84 277.62 -268.38 205.64 -241.95 151.86 C-210.38 88.48 -152.81 37.12 -85.51 14.32 C-73.34 10.32 -61.06 7.04 -48.51 4.5 C-47.54 4.31 -46.58 4.11 -45.58 3.91 C-42.56 3.33 -39.54 2.81 -36.51 2.32 C-35.36 2.13 -34.21 1.94 -33.03 1.75 C-22.02 0.16 -11.11 -0.02 0 0 Z M-20.51 1.32 C-16.51 2.32 -16.51 2.32 -16.51 2.32 Z M23.49 1.32 C27.49 2.32 27.49 2.32 27.49 2.32 Z M-43.51 134.32 C-44.19 134.57 -44.88 134.82 -45.59 135.08 C-60.77 140.77 -74.72 148.3 -87.51 158.32 C-88.41 159 -89.31 159.69 -90.24 160.39 C-114.58 179.49 -130.59 207.69 -138.51 237.32 C-138.73 238.14 -138.95 238.96 -139.18 239.8 C-148.8 277.14 -140.78 317.41 -121.51 350.32 C-115.42 360.06 -108.51 369.06 -100.51 377.32 C-99.98 377.9 -99.46 378.48 -98.92 379.09 C-90.7 387.98 -75.76 400.47 -63.73 402.87 C-63 403.02 -62.26 403.16 -61.51 403.32 C-61.18 403.98 -60.85 404.64 -60.51 405.32 C-58.56 406.1 -56.57 406.8 -54.57 407.44 C-53.37 407.84 -52.16 408.23 -50.92 408.64 C-49.64 409.05 -48.35 409.47 -47.07 409.88 C-44.57 410.69 -42.07 411.5 -39.57 412.32 C-38.46 412.68 -37.34 413.04 -36.2 413.41 C-33.51 414.32 -33.51 414.32 -31.51 415.32 C-20.01 417.38 -8.4 417.53 3.24 417.57 C4.29 417.57 4.29 417.57 5.36 417.58 C42.76 417.8 76.49 403.96 103.49 378.32 C104 377.85 104.5 377.38 105.01 376.89 C131.76 351.76 147.67 317.39 149.4 280.61 C149.79 267.78 148.6 255.37 146.11 242.79 C145.49 239.32 145.49 239.32 145.49 235.32 C144.83 235.32 144.17 235.32 143.49 235.32 C143.82 234 144.15 232.68 144.49 231.32 C143.83 231.32 143.17 231.32 142.49 231.32 C142.16 228.35 141.83 225.38 141.49 222.32 C140.83 222.32 140.17 222.32 139.49 222.32 C139.35 221.41 139.2 220.5 139.06 219.57 C138.63 217.1 138.14 214.73 137.49 212.32 C136.83 212.32 136.17 212.32 135.49 212.32 C135.03 210.55 135.03 210.55 134.56 208.75 C124.58 179.14 96.51 155.84 69.49 142.32 C34.01 124.77 -5.92 120.4 -43.51 134.32 Z M-265.51 224.32 C-264.51 226.32 -264.51 226.32 -264.51 226.32 Z M-267.51 237.32 C-266.51 239.32 -266.51 239.32 -266.51 239.32 Z M-268.51 244.32 C-267.51 248.32 -267.51 248.32 -267.51 248.32 Z M147.49 248.32 C148.49 250.32 148.49 250.32 148.49 250.32 Z M-269.51 257.32 C-269.51 258.97 -269.51 260.62 -269.51 262.32 C-269.18 262.32 -268.85 262.32 -268.51 262.32 C-268.51 260.67 -268.51 259.02 -268.51 257.32 C-268.84 257.32 -269.17 257.32 -269.51 257.32 Z M149.49 264.32 C149.49 267.62 149.49 270.92 149.49 274.32 C149.82 274.32 150.15 274.32 150.49 274.32 C150.49 271.02 150.49 267.72 150.49 264.32 C150.16 264.32 149.83 264.32 149.49 264.32 Z M149.49 277.32 C149.49 279.3 149.49 281.28 149.49 283.32 C149.82 283.32 150.15 283.32 150.49 283.32 C150.49 281.34 150.49 279.36 150.49 277.32 C150.16 277.32 149.83 277.32 149.49 277.32 Z M-269.51 283.32 C-269.51 285.3 -269.51 287.28 -269.51 289.32 C-269.18 289.32 -268.85 289.32 -268.51 289.32 C-268.51 287.34 -268.51 285.36 -268.51 283.32 C-268.84 283.32 -269.17 283.32 -269.51 283.32 Z M-268.51 297.32 C-268.51 298.97 -268.51 300.62 -268.51 302.32 C-268.18 302.32 -267.85 302.32 -267.51 302.32 C-267.51 300.67 -267.51 299.02 -267.51 297.32 C-267.84 297.32 -268.17 297.32 -268.51 297.32 Z M147.49 297.32 C148.49 299.32 148.49 299.32 148.49 299.32 Z M-267.51 307.32 C-266.51 309.32 -266.51 309.32 -266.51 309.32 Z M-266.51 314.32 C-265.51 316.32 -265.51 316.32 -265.51 316.32 Z M-265.51 320.32 C-264.51 322.32 -264.51 322.32 -264.51 322.32 Z M-5.51 418.32 C-5.51 418.65 -5.51 418.98 -5.51 419.32 C-0.23 419.32 5.05 419.32 10.49 419.32 C10.49 418.99 10.49 418.66 10.49 418.32 C5.21 418.32 -0.07 418.32 -5.51 418.32 Z " fill="#FBFDFD" transform="translate(426.50634765625,-0.315673828125)"/>
<path d="M0 0 C1.5 0 3 0 4.5 0.01 C7.62 0.01 10.73 0.02 13.85 0.05 C17.85 0.08 21.84 0.09 25.84 0.09 C28.92 0.09 32.01 0.1 35.09 0.12 C36.57 0.12 38.04 0.13 39.52 0.13 C41.57 0.14 43.61 0.15 45.66 0.17 C46.83 0.17 47.99 0.18 49.19 0.19 C51.93 0.33 51.93 0.33 53.93 1.33 C53.98 48.17 54.02 95.02 54.05 141.87 C54.05 142.91 54.05 142.91 54.05 143.97 C54.06 159.04 54.07 174.11 54.08 189.18 C54.08 196.57 54.09 203.96 54.09 211.36 C54.09 212.09 54.09 212.83 54.09 213.59 C54.1 237.42 54.13 261.25 54.15 285.09 C54.18 309.58 54.2 334.08 54.21 358.58 C54.21 362.04 54.21 365.5 54.21 368.96 C54.21 369.98 54.21 369.98 54.21 371.02 C54.21 381.98 54.23 392.94 54.25 403.9 C54.26 414.92 54.27 425.94 54.27 436.96 C54.26 442.93 54.27 448.9 54.28 454.87 C54.3 460.34 54.3 465.81 54.29 471.27 C54.29 473.25 54.29 475.22 54.3 477.2 C54.4 498.31 49.56 513.6 34.98 529.45 C30.52 533.81 25.63 536.81 20.11 539.64 C19.49 539.97 18.86 540.29 18.21 540.63 C6.84 546.16 -4.6 546.75 -17 546.62 C-18.59 546.62 -20.19 546.61 -21.79 546.61 C-25.95 546.6 -30.11 546.57 -34.27 546.53 C-38.54 546.5 -42.8 546.49 -47.07 546.47 C-55.4 546.44 -63.74 546.39 -72.07 546.33 C-72.16 499.13 -72.24 451.93 -72.29 404.73 C-72.29 404.03 -72.29 403.33 -72.29 402.61 C-72.3 387.42 -72.32 372.24 -72.33 357.05 C-72.34 349.6 -72.34 342.15 -72.35 334.7 C-72.35 333.96 -72.35 333.22 -72.35 332.45 C-72.37 308.44 -72.41 284.43 -72.46 260.41 C-72.5 235.73 -72.53 211.04 -72.54 186.36 C-72.55 182.87 -72.55 179.38 -72.55 175.9 C-72.55 175.21 -72.55 174.52 -72.55 173.82 C-72.56 162.78 -72.58 151.74 -72.61 140.7 C-72.64 129.59 -72.65 118.48 -72.64 107.38 C-72.64 101.36 -72.64 95.35 -72.67 89.33 C-72.69 83.82 -72.7 78.31 -72.68 72.8 C-72.68 70.81 -72.68 68.82 -72.7 66.83 C-72.82 50.46 -69.87 38.89 -60.07 25.33 C-59.56 24.62 -59.05 23.91 -58.53 23.18 C-44.22 5.23 -21.86 -0.2 0 0 Z " fill="#FBFDFD" transform="translate(72.07421875,-0.328125)"/>
<path d="M0 0 C0.33 0 0.66 0 1 0 C1 2.97 1 5.94 1 9 C0.67 9 0.34 9 0 9 C0 6.03 0 3.06 0 0 Z " fill="#FBFDFD" transform="translate(733,267)"/>
<path d="" fill="#FBFDFD" transform="translate(0,0)"/>
<path d="" fill="#FBFDFD" transform="translate(0,0)"/>
<path d="" fill="#FBFDFD" transform="translate(0,0)"/>
<path d="" fill="#FBFDFD" transform="translate(0,0)"/>
<path d="" fill="#FBFDFD" transform="translate(0,0)"/>
<path d="" fill="#FBFDFD" transform="translate(0,0)"/>
</svg>
